<mxfile host="app.diagrams.net" modified="2024-06-07T07:46:19.687Z" agent="Mozilla/5.0 (Windows NT 10.0; Win64; x64; rv:126.0) Gecko/20100101 Firefox/126.0" version="24.5.1" etag="J-Tr1j7psnHzwnr1Rfvu" type="github">
  <diagram name="Trang-1" id="VBzykyOr42ME2RB3IbmI">
    <mxGraphModel>
      <root>
        <mxCell id="0" />
        <mxCell id="1" parent="0" />
      </root>
    </mxGraphModel>
  </diagram>
</mxfile>
